<svg width="14" height="14" viewBox="0 0 14 14" fill="none" xmlns="http://www.w3.org/2000/svg">
    <path fill-rule="evenodd" clip-rule="evenodd" d="M2.02732 0.333496H4.28065C5.22065 0.333496 5.97398 1.10016 5.97398 2.04083V4.3135C5.97398 5.26016 5.22065 6.02016 4.28065 6.02016H2.02732C1.09398 6.02016 0.333984 5.26016 0.333984 4.3135V2.04083C0.333984 1.10016 1.09398 0.333496 2.02732 0.333496ZM2.02732 7.97996H4.28065C5.22065 7.97996 5.97398 8.74063 5.97398 9.6873V11.96C5.97398 12.9 5.22065 13.6666 4.28065 13.6666H2.02732C1.09398 13.6666 0.333984 12.9 0.333984 11.96V9.6873C0.333984 8.74063 1.09398 7.97996 2.02732 7.97996ZM11.9741 0.333496H9.72072C8.78072 0.333496 8.02738 1.10016 8.02738 2.04083V4.3135C8.02738 5.26016 8.78072 6.02016 9.72072 6.02016H11.9741C12.9074 6.02016 13.6674 5.26016 13.6674 4.3135V2.04083C13.6674 1.10016 12.9074 0.333496 11.9741 0.333496ZM9.72072 7.97996H11.9741C12.9074 7.97996 13.6674 8.74063 13.6674 9.6873V11.96C13.6674 12.9 12.9074 13.6666 11.9741 13.6666H9.72072C8.78072 13.6666 8.02738 12.9 8.02738 11.96V9.6873C8.02738 8.74063 8.78072 7.97996 9.72072 7.97996Z" fill="white"/>
</svg>
