<svg width="9" height="11" viewBox="0 0 9 11" fill="none" xmlns="http://www.w3.org/2000/svg">
    <path d="M8.68707 3.24585L3.65317 9.75564C3.42215 10.0513 3.08169 10.2175 2.71691 10.2237L0.710648 10.2483C0.601215 10.2483 0.510021 10.1744 0.485703 10.0697L0.0297337 8.09278C-0.049301 7.72941 0.0297337 7.35373 0.260758 7.06427L3.82948 2.44521C3.89027 2.37131 3.99971 2.3596 4.07266 2.41442L5.57432 3.60921C5.67159 3.68928 5.80534 3.73239 5.94518 3.71391C6.24308 3.67696 6.4437 3.40597 6.4133 3.11651C6.39507 2.9687 6.32211 2.84553 6.22484 2.75315C6.19444 2.72851 4.76574 1.58299 4.76574 1.58299C4.67454 1.50908 4.6563 1.37359 4.72926 1.28182L5.29466 0.548318C5.8175 -0.122985 6.72944 -0.184572 7.46507 0.400508L8.31014 1.07181C8.65667 1.3428 8.8877 1.7 8.96673 2.07569C9.05793 2.48894 8.96065 2.8948 8.68707 3.24585Z" fill="#062439"/>
</svg>
