<svg width="8" height="13" viewBox="0 0 8 13" fill="none" xmlns="http://www.w3.org/2000/svg">
    <path d="M4.66667 9.40503H3.35088C3.35088 8.83613 3.43275 8.32775 3.59649 7.87989C3.76023 7.41993 3.95906 7.0568 4.19298 6.7905C4.4386 6.52421 4.70175 6.25791 4.98246 5.99162C5.26316 5.72533 5.52047 5.48929 5.75439 5.28352C6 5.07775 6.20468 4.8175 6.36842 4.50279C6.53216 4.17598 6.61404 3.8189 6.61404 3.43156C6.61404 2.81425 6.39181 2.30587 5.94737 1.90642C5.51462 1.50698 4.92398 1.30726 4.17544 1.30726C3.28655 1.30726 2.60234 1.57356 2.12281 2.10615C1.64327 2.62663 1.40351 3.34683 1.40351 4.26676H0C0 2.98371 0.374269 1.95484 1.12281 1.18017C1.87135 0.393389 2.88889 0 4.17544 0C5.35673 0 6.28655 0.314711 6.96491 0.944134C7.65497 1.56145 8 2.36033 8 3.34078C8 3.9581 7.88304 4.49674 7.64912 4.9567C7.4269 5.41667 7.15205 5.7919 6.82456 6.0824C6.49708 6.3729 6.16959 6.65736 5.84211 6.93575C5.51462 7.21415 5.23392 7.55912 5 7.97067C4.77778 8.38222 4.66667 8.86033 4.66667 9.40503ZM3.40351 12.7458C3.23977 12.5642 3.15789 12.3524 3.15789 12.1103C3.15789 11.8682 3.23977 11.6625 3.40351 11.493C3.57895 11.3236 3.78363 11.2388 4.01754 11.2388C4.25146 11.2388 4.45029 11.3236 4.61403 11.493C4.78947 11.6625 4.87719 11.8682 4.87719 12.1103C4.87719 12.3524 4.78947 12.5642 4.61403 12.7458C4.45029 12.9153 4.25146 13 4.01754 13C3.78363 13 3.57895 12.9153 3.40351 12.7458Z" fill="#6E6E73"/>
</svg>
