<svg width="20" height="20" viewBox="0 0 20 20" fill="none" xmlns="http://www.w3.org/2000/svg">
    <path d="M15.4168 8.33333V7.91667C15.4168 4.925 12.9918 2.5 10.0002 2.5V2.5C7.0085 2.5 4.5835 4.925 4.5835 7.91667V8.33333" stroke="#062439" stroke-width="1.5" stroke-linecap="round" stroke-linejoin="round"/>
    <path d="M11.5625 16.6667H13.3333C14.2542 16.6667 15 15.9209 15 15V14.1667" stroke="#062439" stroke-width="1.5" stroke-linecap="round" stroke-linejoin="round"/>
    <path fill-rule="evenodd" clip-rule="evenodd" d="M15.8332 14.1666H14.9998C14.5398 14.1666 14.1665 13.7933 14.1665 13.3333V9.16665C14.1665 8.70665 14.5398 8.33331 14.9998 8.33331H15.8332C16.754 8.33331 17.4998 9.07915 17.4998 9.99998V12.5C17.4998 13.4208 16.754 14.1666 15.8332 14.1666Z" fill="#062439" stroke="#062439" stroke-width="1.5" stroke-linecap="round" stroke-linejoin="round"/>
    <path fill-rule="evenodd" clip-rule="evenodd" d="M5 14.1666H4.16667C3.24583 14.1666 2.5 13.4208 2.5 12.5V9.99998C2.5 9.07915 3.24583 8.33331 4.16667 8.33331H5C5.46 8.33331 5.83333 8.70665 5.83333 9.16665V13.3333C5.83333 13.7933 5.46 14.1666 5 14.1666Z" fill="#062439" stroke="#062439" stroke-width="1.5" stroke-linecap="round" stroke-linejoin="round"/>
    <path fill-rule="evenodd" clip-rule="evenodd" d="M10.5208 17.7083H9.47917C8.90417 17.7083 8.4375 17.2417 8.4375 16.6667C8.4375 16.0917 8.90417 15.625 9.47917 15.625H10.5208C11.0958 15.625 11.5625 16.0917 11.5625 16.6667C11.5625 17.2417 11.0958 17.7083 10.5208 17.7083Z" fill="#062439" stroke="#062439" stroke-width="1.5" stroke-linecap="round" stroke-linejoin="round"/>
</svg>
